<svg width="16" height="16" viewBox="0 0 16 16" fill="none" xmlns="http://www.w3.org/2000/svg">
<g clip-path="url(#clip0_1_814)">
<path d="M4 14.6667V2.66667C4 2.31305 4.14048 1.97391 4.39052 1.72386C4.64057 1.47381 4.97971 1.33334 5.33333 1.33334H10.6667C11.0203 1.33334 11.3594 1.47381 11.6095 1.72386C11.8595 1.97391 12 2.31305 12 2.66667V14.6667H4Z" stroke="#0033A0" style="stroke:#0033A0;stroke:color(display-p3 0.0000 0.2000 0.6275);stroke-opacity:1;" stroke-width="1.33333" stroke-linecap="round" stroke-linejoin="round"/>
<path d="M4.00004 8H2.66671C2.31309 8 1.97395 8.14048 1.7239 8.39052C1.47385 8.64057 1.33337 8.97971 1.33337 9.33333V13.3333C1.33337 13.687 1.47385 14.0261 1.7239 14.2761C1.97395 14.5262 2.31309 14.6667 2.66671 14.6667H4.00004" stroke="#0033A0" style="stroke:#0033A0;stroke:color(display-p3 0.0000 0.2000 0.6275);stroke-opacity:1;" stroke-width="1.33333" stroke-linecap="round" stroke-linejoin="round"/>
<path d="M12 6H13.3333C13.687 6 14.0261 6.14048 14.2761 6.39052C14.5262 6.64057 14.6667 6.97971 14.6667 7.33333V13.3333C14.6667 13.687 14.5262 14.0261 14.2761 14.2761C14.0261 14.5262 13.687 14.6667 13.3333 14.6667H12" stroke="#0033A0" style="stroke:#0033A0;stroke:color(display-p3 0.0000 0.2000 0.6275);stroke-opacity:1;" stroke-width="1.33333" stroke-linecap="round" stroke-linejoin="round"/>
<path d="M6.66663 4H9.33329" stroke="#0033A0" style="stroke:#0033A0;stroke:color(display-p3 0.0000 0.2000 0.6275);stroke-opacity:1;" stroke-width="1.33333" stroke-linecap="round" stroke-linejoin="round"/>
<path d="M6.66663 6.66666H9.33329" stroke="#0033A0" style="stroke:#0033A0;stroke:color(display-p3 0.0000 0.2000 0.6275);stroke-opacity:1;" stroke-width="1.33333" stroke-linecap="round" stroke-linejoin="round"/>
<path d="M6.66663 9.33334H9.33329" stroke="#0033A0" style="stroke:#0033A0;stroke:color(display-p3 0.0000 0.2000 0.6275);stroke-opacity:1;" stroke-width="1.33333" stroke-linecap="round" stroke-linejoin="round"/>
<path d="M6.66663 12H9.33329" stroke="#0033A0" style="stroke:#0033A0;stroke:color(display-p3 0.0000 0.2000 0.6275);stroke-opacity:1;" stroke-width="1.33333" stroke-linecap="round" stroke-linejoin="round"/>
</g>
<defs>
<clipPath id="clip0_1_814">
<rect width="16" height="16" fill="white" style="fill:white;fill-opacity:1;"/>
</clipPath>
</defs>
</svg>
