<svg width="16" height="16" viewBox="0 0 16 16" fill="none" xmlns="http://www.w3.org/2000/svg">
<path d="M14 5.33334L12.6667 6.66667L11.6667 4.2C11.5724 3.94756 11.4038 3.72962 11.1831 3.57491C10.9625 3.42019 10.7001 3.33597 10.4307 3.33334H5.6C5.32834 3.3271 5.06125 3.40401 4.83451 3.55378C4.60778 3.70355 4.43221 3.91902 4.33133 4.17134L3.33333 6.66667L2 5.33334" stroke="#0033A0" style="stroke:#0033A0;stroke:color(display-p3 0.0000 0.2000 0.6275);stroke-opacity:1;" stroke-width="1.33333" stroke-linecap="round" stroke-linejoin="round"/>
<path d="M4.66663 9.33334H4.67329" stroke="#0033A0" style="stroke:#0033A0;stroke:color(display-p3 0.0000 0.2000 0.6275);stroke-opacity:1;" stroke-width="1.33333" stroke-linecap="round" stroke-linejoin="round"/>
<path d="M11.3334 9.33334H11.34" stroke="#0033A0" style="stroke:#0033A0;stroke:color(display-p3 0.0000 0.2000 0.6275);stroke-opacity:1;" stroke-width="1.33333" stroke-linecap="round" stroke-linejoin="round"/>
<path d="M12.6667 6.66666H3.33333C2.59695 6.66666 2 7.26362 2 8V10.6667C2 11.403 2.59695 12 3.33333 12H12.6667C13.403 12 14 11.403 14 10.6667V8C14 7.26362 13.403 6.66666 12.6667 6.66666Z" stroke="#0033A0" style="stroke:#0033A0;stroke:color(display-p3 0.0000 0.2000 0.6275);stroke-opacity:1;" stroke-width="1.33333" stroke-linecap="round" stroke-linejoin="round"/>
<path d="M3.33337 12V13.3333" stroke="#0033A0" style="stroke:#0033A0;stroke:color(display-p3 0.0000 0.2000 0.6275);stroke-opacity:1;" stroke-width="1.33333" stroke-linecap="round" stroke-linejoin="round"/>
<path d="M12.6666 12V13.3333" stroke="#0033A0" style="stroke:#0033A0;stroke:color(display-p3 0.0000 0.2000 0.6275);stroke-opacity:1;" stroke-width="1.33333" stroke-linecap="round" stroke-linejoin="round"/>
</svg>
